# xmcd
# 
# Track frame offsets:
#     150
#     12721
#     30600
#     50974
# 
# Disc length: 907
# 
# Revision: 0
# Processed by: cddbd v1.5.2PL0 Copyright (c) Steve Scherf et al.
# Submitted via: fre:ac v1.0.17
# 
DISCID=34038904
DTITLE=Dark Stares - Tell Your Friends
DYEAR=0
DGENRE=
TTITLE0=Whisky
TTITLE1=Long Live The King
TTITLE2=We Are The Kings Tonight
TTITLE3=Invaders
EXTD=
EXTT0=
EXTT1=
EXTT2=
EXTT3=
PLAYORDER=
